<svg xmlns="http://www.w3.org/2000/svg" width="1254" height="1254" viewBox="0 0 1254 1254">
  <path data-name="outer gold rim" fill="#F2C746" fill-rule="evenodd" d="M626 104C902 104 1126 328 1126 604C1126 880 902 1104 626 1104C350 1104 126 880 126 604C126 328 350 104 626 104Z M626 132C365 132 154 344 154 604C154 865 365 1076 626 1076C887 1076 1098 865 1098 604C1098 344 887 132 626 132Z"/>
  <path data-name="aqua field" fill="#26A6C6" d="M626 132C887 132 1098 344 1098 604C1098 865 887 1076 626 1076C365 1076 154 865 154 604C154 344 365 132 626 132Z"/>
  <path data-name="deep blue crescent" fill="#2453A1" d="M944 258C1041 353 1098 476 1098 604C1098 824 948 1011 746 1064C854 991 889 899 860 824C836 763 788 680 876 604C972 520 996 389 944 258Z"/>
  <path data-name="lower aqua field" fill="#62C3E3" d="M390 948C446 1063 565 1078 680 1042C765 1015 818 962 815 872C809 732 716 627 590 606C492 590 410 655 381 756C357 839 365 898 390 948Z"/>
  <path data-name="right gold crescent" fill="#F2C746" d="M945 258C1037 373 1033 520 893 617C786 691 767 806 784 898C801 987 749 1052 632 1073C798 1058 893 966 865 841C847 761 792 673 876 604C972 524 998 390 945 258Z"/>
  <path data-name="left lower gold curve" fill="#F2C746" d="M332 789C280 832 272 917 324 967C361 1004 413 1012 449 990C427 985 403 973 381 952C326 900 330 833 381 788C363 775 348 775 332 789Z"/>
  <path data-name="body gold outline" fill="#F2C746" d="M438 599C520 652 618 657 698 611C752 657 786 761 780 879C774 1009 698 1059 581 1067C526 1071 507 1095 449 1058C401 1027 388 948 424 887C373 913 311 893 287 838C255 764 295 676 378 637C398 628 419 613 438 599Z"/>
  <path data-name="body fill" fill="#70C9EA" d="M464 621C534 666 624 668 692 624C731 671 759 766 756 874C752 994 681 1032 580 1040C521 1045 508 1066 456 1033C414 1007 405 939 437 895C472 845 518 838 552 868C594 831 670 829 716 884C698 825 621 795 526 829C487 805 470 724 484 661C480 644 473 633 464 621Z"/>
  <path data-name="body shadow" fill="#4FB7DB" d="M488 664C529 712 609 722 676 688C661 758 614 805 552 812C505 817 474 790 466 739C462 708 469 681 488 664Z"/>
  <path data-name="left foot gold" fill="#F2C746" d="M405 861C461 844 522 882 526 946C531 1010 462 1053 411 1023C362 994 349 879 405 861Z"/>
  <path data-name="left foot fill" fill="#70C9EA" d="M421 884C462 871 507 900 509 947C511 993 462 1027 424 1004C387 982 379 897 421 884Z"/>
  <path data-name="right foot gold" fill="#F2C746" d="M520 872C579 825 667 828 715 882C729 898 718 915 702 904C654 869 591 867 537 900C525 907 508 882 520 872Z"/>
  <path data-name="heart gold outline" fill="#F2C746" d="M843 605C878 590 902 607 916 642C943 613 998 615 1027 650C1068 701 1041 769 876 854C757 721 765 637 843 605Z"/>
  <path data-name="heart fill" fill="#D94168" d="M850 630C879 614 904 635 913 674C944 638 994 643 1017 681C1045 728 1007 772 878 835C789 725 785 665 850 630Z"/>
  <path data-name="left arm gold" fill="#F2C746" d="M421 610C364 632 329 684 327 745C325 780 347 806 379 810C413 815 436 792 438 758C440 725 423 689 390 676C399 652 419 632 449 622C465 617 440 603 421 610Z"/>
  <path data-name="bottle gold outline" fill="#F2C746" d="M340 591C367 575 392 582 407 607L483 738C516 795 494 856 441 887C404 909 384 889 362 852L295 736C279 709 286 675 314 656L295 623C287 609 291 593 305 585C319 577 332 579 340 591Z"/>
  <path data-name="bottle body" fill="#FFF8D8" d="M344 641C365 629 386 635 399 657L464 769C484 805 473 837 434 858C410 872 395 862 380 836L319 731C306 708 312 680 335 666L344 641Z"/>
  <path data-name="bottle teal band" fill="#1595B7" d="M316 681C343 666 380 646 408 631L433 675C404 690 368 710 341 726L316 681Z"/>
  <path data-name="bottle cap gold" fill="#F2C746" d="M310 576C328 565 355 574 366 594L377 613L319 647L307 626C295 605 296 584 310 576Z"/>
  <path data-name="bottle nipple" fill="#FFD16F" d="M329 548C350 546 367 565 370 593L318 622C329 590 312 576 329 548Z"/>
  <path data-name="left hand gold" fill="#F2C746" d="M309 714C332 694 366 703 381 735C397 770 387 807 357 817C329 827 300 806 291 772C284 747 291 730 309 714Z"/>
  <path data-name="left hand fill" fill="#FFC58E" d="M320 724C340 710 362 720 372 746C384 775 375 803 353 810C331 817 308 799 302 772C297 751 304 735 320 724Z"/>
  <path data-name="right hand gold" fill="#F2C746" d="M488 696C519 680 552 701 558 741C565 779 546 811 512 815C481 818 453 790 451 753C449 727 463 709 488 696Z"/>
  <path data-name="right hand fill" fill="#FFC58E" d="M496 708C520 696 546 714 550 745C555 775 540 802 515 806C491 809 468 786 467 756C466 734 477 718 496 708Z"/>
  <path data-name="neck gold" fill="#F2C746" d="M489 590C542 626 632 633 693 589C710 577 729 601 710 618C645 673 542 671 475 617C459 604 473 580 489 590Z"/>
  <path data-name="head gold outline" fill="#F2C746" d="M377 402C386 278 488 192 627 192C768 192 864 292 861 489C893 491 900 533 879 563C860 590 827 597 799 578C753 628 691 653 607 655C506 658 420 606 393 520C359 522 337 494 334 459C331 428 347 407 377 402Z"/>
  <path data-name="face fill" fill="#FFD19A" d="M397 418C404 302 499 214 628 214C753 214 838 309 835 494C860 499 867 530 850 552C832 574 803 577 782 557C741 605 677 626 605 626C508 626 433 575 413 493C384 498 356 479 356 451C356 429 372 414 397 418Z"/>
  <path data-name="face warm patch" fill="#FFC184" d="M580 219C733 196 835 307 835 493C858 502 863 530 847 550C832 569 804 576 782 557C744 601 677 626 605 626C567 626 527 618 493 600C638 613 757 544 791 432C821 330 743 226 580 219Z"/>
  <path data-name="hair gold base" fill="#F2C746" d="M580 225C623 183 704 190 738 237C776 289 752 354 689 373C626 392 566 360 552 308C541 274 552 247 580 225Z"/>
  <path data-name="hair curl" fill="#9A6337" d="M713 230C658 207 592 211 566 255C542 295 562 336 603 348C651 362 693 333 690 292C688 260 659 239 630 251C605 261 593 291 607 310C621 329 645 322 650 303C654 288 643 279 629 282C649 263 675 277 676 304C678 335 645 355 608 349C567 342 542 313 544 278C546 224 607 194 674 212C694 217 717 224 713 230Z"/>
  <path data-name="hair shine" fill="#FFD977" d="M608 257C630 238 669 250 681 282C667 264 633 259 615 279C603 292 608 307 620 315C599 314 590 273 608 257Z"/>
  <path data-name="left brow" fill="#8A5835" d="M480 373C492 363 509 361 518 369C524 374 520 380 512 380C500 378 491 379 483 384C476 388 471 380 480 373Z"/>
  <path data-name="right brow" fill="#8A5835" d="M704 400C720 399 735 406 743 418C748 425 740 431 733 424C724 415 714 410 703 410C696 410 696 401 704 400Z"/>
  <path data-name="left eye" fill="#2B2119" d="M498 421C523 421 539 443 533 469C528 493 507 508 485 501C463 494 453 469 462 445C468 430 481 421 498 421Z"/>
  <path data-name="right eye" fill="#2B2119" d="M683 459C708 459 724 481 718 507C713 531 692 546 670 539C648 532 638 507 647 483C653 468 666 459 683 459Z"/>
  <path data-name="left eye shine" fill="#FFFFFF" d="M504 433C514 433 522 441 522 451C522 461 514 469 504 469C494 469 486 461 486 451C486 441 494 433 504 433Z"/>
  <path data-name="right eye shine" fill="#FFFFFF" d="M681 470C691 470 699 478 699 488C699 498 691 506 681 506C671 506 663 498 663 488C663 478 671 470 681 470Z"/>
  <path data-name="left cheek" fill="#EE765F" d="M449 478C481 478 500 504 488 532C477 558 441 564 421 542C399 517 414 478 449 478Z"/>
  <path data-name="right cheek" fill="#EE765F" d="M708 529C741 529 760 555 748 584C736 611 699 617 678 594C656 569 672 529 708 529Z"/>
  <path data-name="mouth" fill="#B74636" d="M530 517C558 532 589 536 616 531C631 528 638 539 632 558C620 595 582 619 548 596C519 576 511 543 520 523C522 517 525 515 530 517Z"/>
  <path data-name="tongue" fill="#F07169" d="M537 574C557 555 596 554 615 584C595 608 557 611 537 574Z"/>
</svg>
